<svg xmlns="http://www.w3.org/2000/svg" width="68" height="66" viewBox="0 0 68 66">
  <defs>
    <style>
      .cls-1 {
        fill: #3172b9;
        fill-rule: evenodd;
      }
    </style>
  </defs>
  <path id="icon" class="cls-1" d="M386.393,966A18.064,18.064,0,0,0,367.9,983.512l-0.124,4.971a2.486,2.486,0,0,0,4.97.108l0.125-4.971a13.08,13.08,0,1,1,12.752,13.252L354.5,996.2a17.908,17.908,0,1,0,17.6,18.293l0.123-4.92a2.486,2.486,0,0,0-4.971-.11l-0.123,4.92a13.08,13.08,0,1,1-12.752-13.25l31.123,0.67A17.9,17.9,0,1,0,386.393,966Z" transform="translate(-336 -966)"/>
</svg>
